<svg version="1.1" xmlns="http://www.w3.org/2000/svg" xmlns:xlink="http://www.w3.org/1999/xlink" width="1019" height="528" viewBox="0 0 1019 528"><defs/><g transform="matrix(1,0,0,1,0,0)"><g><g><g><path fill="none" stroke="#d3d3d3" paint-order="fill stroke markers" d=" M 0 0 L 1200 0" stroke-miterlimit="10" stroke-opacity="0.8" stroke-dasharray="5"/></g><g><path fill="none" stroke="#d3d3d3" paint-order="fill stroke markers" d=" M 0 0 L 0 800" stroke-miterlimit="10" stroke-opacity="0.8" stroke-dasharray="5"/></g></g><g id="_E293D2A4-5DEA-4041-A64F-CCD9ACDBF82D" transform="matrix(1,0,0,1,596,134)"><g><path fill="none" stroke="none"/></g><g transform="matrix(1,0,0,1,0,0)"><path fill="none" stroke="#000000" id="_E293D2A4-5DEA-4041-A64F-CCD9ACDBF82D?shapeType=BORDER&amp;renderType=STROKE" paint-order="fill stroke markers" d=" M 0 0 L 100 0 L 100 50 L 0 50 L 0 0 Z Z" stroke-miterlimit="10" stroke-width="1.5" stroke-dasharray=""/></g><g transform="matrix(1,0,0,1,29.59821319580078,18.5)"><text fill="#000000" stroke="none" font-family="Open Sans" font-size="10pt" font-style="normal" font-weight="normal" text-decoration="normal" x="20.40178680419922" y="10.4" text-anchor="middle" dominant-baseline="alphabetic">Device</text></g></g><g transform="matrix(1,0,0,1,596,134)"/><g id="_B76E8B8F-43A2-49DC-BFEB-7C5E4C5C6925" transform="matrix(1,0,0,1,605,426.3421052631579)"><g><path fill="none" stroke="none"/></g><g transform="matrix(0.9345794392523364,0,0,0.8771929824561403,0,0)"><g transform="matrix(1,0,0,1,0,0)"><path fill="none" stroke="#000000" id="_B76E8B8F-43A2-49DC-BFEB-7C5E4C5C6925?shapeType=BORDER&amp;renderType=STROKE" paint-order="fill stroke markers" d=" M 0 0 M 1.5 30 C 1.5 14.3 14.3 1.5 30 1.5 L 80 1.5 C 95.7 1.5 108.5 14.3 108.5 30 C 108.5 45.7 95.7 58.5 80 58.5 L 30 58.5 C 14.3 58.5 1.5 45.7 1.5 30 Z" stroke-miterlimit="10" stroke-width="1.5" stroke-dasharray=""/></g></g><g transform="matrix(1,0,0,1,26.897079467773438,18.5)"><text fill="#000000" stroke="none" font-family="Open Sans" font-size="10pt" font-style="normal" font-weight="normal" text-decoration="normal" x="23.102920532226562" y="10.4" text-anchor="middle" dominant-baseline="alphabetic">Corvert</text></g></g><g transform="matrix(1,0,0,1,605,426.3421052631579)"/><g id="_3B021D9D-2A5F-470E-8D2E-C7AECB7022B9" transform="matrix(1,0,0,1,399,426)"><g><path fill="none" stroke="none"/></g><g transform="matrix(1,0,0,1,0,0)"><path fill="none" stroke="#000000" id="_3B021D9D-2A5F-470E-8D2E-C7AECB7022B9?shapeType=BORDER&amp;renderType=STROKE" paint-order="fill stroke markers" d=" M 0 0 L 129 0 L 129 50 L 0 50 L 0 0 Z Z" stroke-miterlimit="10" stroke-width="1.5" stroke-dasharray=""/></g><g transform="matrix(1,0,0,1,10.425033569335938,18.5)"><text fill="#000000" stroke="none" font-family="Open Sans" font-size="10pt" font-style="normal" font-weight="normal" text-decoration="normal" x="54.07496643066406" y="10.4" text-anchor="middle" dominant-baseline="alphabetic">VehicleProperties</text></g></g><g transform="matrix(1,0,0,1,399,426)"/><g id="_459BCA1C-FFA4-4BC8-9B28-0305E6C92D2D" transform="matrix(1,0,0,1,670,236)"><g><path fill="none" stroke="none"/></g><g transform="matrix(1,0,0,1,0,0)"><path fill="none" stroke="#000000" id="_459BCA1C-FFA4-4BC8-9B28-0305E6C92D2D?shapeType=BORDER&amp;renderType=STROKE" paint-order="fill stroke markers" d=" M 0 0 L 100 0 L 100 50 L 0 50 L 0 0 Z Z" stroke-miterlimit="10" stroke-width="1.5" stroke-dasharray=""/></g><g transform="matrix(1,0,0,1,37.38923645019531,18.5)"><text fill="#000000" stroke="none" font-family="Open Sans" font-size="10pt" font-style="normal" font-weight="normal" text-decoration="normal" x="12.610763549804688" y="10.4" text-anchor="middle" dominant-baseline="alphabetic">TCU</text></g></g><g transform="matrix(1,0,0,1,670,236)"/><g id="_3CDD652C-A223-4D24-BD60-CC6C68A7FCEB" transform="matrix(1,0,0,1,533,236)"><g><path fill="none" stroke="none"/></g><g transform="matrix(1,0,0,1,0,0)"><path fill="none" stroke="#000000" id="_3CDD652C-A223-4D24-BD60-CC6C68A7FCEB?shapeType=BORDER&amp;renderType=STROKE" paint-order="fill stroke markers" d=" M 0 0 L 100 0 L 100 50 L 0 50 L 0 0 Z Z" stroke-miterlimit="10" stroke-width="1.5" stroke-dasharray=""/></g><g transform="matrix(1,0,0,1,40.230316162109375,18.5)"><text fill="#000000" stroke="none" font-family="Open Sans" font-size="10pt" font-style="normal" font-weight="normal" text-decoration="normal" x="9.769683837890625" y="10.4" text-anchor="middle" dominant-baseline="alphabetic">HU</text></g></g><g transform="matrix(1,0,0,1,533,236)"/><g id="_A8C63B5E-3FCD-42E6-9EA3-DF13CBD2E6B3" transform="matrix(1,0,0,1,323,65)"><g><path fill="none" stroke="none"/></g><g transform="matrix(1,0,0,1,0,0)"><path fill="none" stroke="#000000" id="_A8C63B5E-3FCD-42E6-9EA3-DF13CBD2E6B3?shapeType=BORDER&amp;renderType=STROKE" paint-order="fill stroke markers" d=" M 0 0 L 100 0 L 100 50 L 0 50 L 0 0 Z Z" stroke-miterlimit="10" stroke-width="1.5" stroke-dasharray=""/></g><g transform="matrix(1,0,0,1,10.429862976074219,18.5)"><text fill="#000000" stroke="none" font-family="Open Sans" font-size="10pt" font-style="normal" font-weight="normal" text-decoration="normal" x="39.57013702392578" y="10.4" text-anchor="middle" dominant-baseline="alphabetic">Platform DM</text></g></g><g transform="matrix(1,0,0,1,323,65)"/><g id="_0E33ECC8-A2BD-48C7-989A-ADD220600007" transform="matrix(1,0,0,1,869,65)"><g><path fill="none" stroke="none"/></g><g transform="matrix(1,0,0,1,0,0)"><path fill="none" stroke="#000000" id="_0E33ECC8-A2BD-48C7-989A-ADD220600007?shapeType=BORDER&amp;renderType=STROKE" paint-order="fill stroke markers" d=" M 0 0 L 100 0 L 100 50 L 0 50 L 0 0 Z Z" stroke-miterlimit="10" stroke-width="1.5" stroke-dasharray=""/></g><g transform="matrix(1,0,0,1,8.874267578125,18.5)"><text fill="#000000" stroke="none" font-family="Open Sans" font-size="10pt" font-style="normal" font-weight="normal" text-decoration="normal" x="41.125732421875" y="10.4" text-anchor="middle" dominant-baseline="alphabetic">Platform OTA</text></g></g><g transform="matrix(1,0,0,1,869,65)"/><g id="_44286F6A-C90C-4837-82C0-23955924B6F3#_A8472F47-EDAA-4511-8B92-F67410F3544E"><g><path fill="none" stroke="#000000" paint-order="fill stroke markers" d=" M 654.2303537672158 426.3421052631579 L 647.2312152939442 198.99289678487048" stroke-miterlimit="10" stroke-dasharray=""/></g><g transform="matrix(1,0,0,1,654.2303537672158,426.3421052631579)"/><g transform="matrix(0.9995264523246995,-0.030771270743995938,0.030771270743995938,0.9995264523246995,641.7720139711607,184.15385635372)"><path fill="#000000" stroke="#000000" paint-order="fill stroke markers" d=" M 10 15 L 0 15 L 5 0 Z" stroke-miterlimit="10" stroke-dasharray=""/></g><g transform="matrix(1,0,0,1,657.4181374488475,304.863339924139)"/></g><g id="_44286F6A-C90C-4837-82C0-23955924B6F3#_43E813CC-ECD3-4898-AE54-CD6B52A59CDB"><g><path fill="none" stroke="#000000" paint-order="fill stroke markers" d=" M 596 146.36263736263737 L 437.542688346244 106.31298716443531" stroke-miterlimit="10" stroke-dasharray=""/></g><g transform="matrix(1,0,0,1,596,146.36263736263737)"/><g transform="matrix(0.24504163513817856,-0.9695125564162683,0.9695125564162683,0.24504163513817856,421.7747918243091,107.48492541944398)"><path fill="#000000" stroke="#000000" paint-order="fill stroke markers" d=" M 10 15 L 0 15 L 5 0 Z" stroke-miterlimit="10" stroke-dasharray=""/></g><g transform="matrix(1,0,0,1,425.45041635138176,114.80487443583732)"/></g><g id="_44286F6A-C90C-4837-82C0-23955924B6F3#_85B0FE98-4951-4229-B716-92315141D86B"><g><path fill="none" stroke="#000000" paint-order="fill stroke markers" d=" M 696 146.36263736263737 L 854.4573116537559 106.31298716443531" stroke-miterlimit="10" stroke-dasharray=""/></g><g transform="matrix(1,0,0,1,696,146.36263736263737)"/><g transform="matrix(0.24504163513817748,0.9695125564162685,-0.9695125564162685,0.24504163513817748,867.7747918243091,97.7897998552813)"><path fill="#000000" stroke="#000000" paint-order="fill stroke markers" d=" M 10 15 L 0 15 L 5 0 Z" stroke-miterlimit="10" stroke-dasharray=""/></g><g transform="matrix(1,0,0,1,698.4504163513818,114.80487443583732)"/></g><g id="_44286F6A-C90C-4837-82C0-23955924B6F3#_E1A70B34-509B-44B3-BB1B-CC59001FFFA0"><g><path fill="none" stroke="#000000" paint-order="fill stroke markers" d=" M 605 451.25278274014016 L 542.9999760645179 451.1420227688386" stroke-miterlimit="10" stroke-dasharray=""/></g><g transform="matrix(1,0,0,1,605,451.25278274014016)"/><g transform="matrix(0.0017864476097161726,-0.9999984043011957,0.9999984043011957,0.0017864476097161726,527.9910677619514,456.11521807619886)"><path fill="#000000" stroke="#000000" paint-order="fill stroke markers" d=" M 10 15 L 0 15 L 5 0 Z" stroke-miterlimit="10" stroke-dasharray=""/></g><g transform="matrix(1,0,0,1,528.0178644760972,441.18402035440454)"/></g><g id="_44286F6A-C90C-4837-82C0-23955924B6F3#_41B351B4-7CC5-48D9-8017-B049A14EB49B"><g><path fill="none" stroke="#000000" paint-order="fill stroke markers" d=" M 663.5372597815567 426.3421052631579 L 706.6152394707258 300.1951307320813" stroke-miterlimit="10" stroke-dasharray=""/></g><g transform="matrix(1,0,0,1,663.5372597815567,426.3421052631579)"/><g transform="matrix(0.9463420488054183,0.32316671651450013,-0.32316671651450013,0.9463420488054183,706.7310299744162,284.3841664174275)"><path fill="#000000" stroke="#000000" paint-order="fill stroke markers" d=" M 10 15 L 0 15 L 5 0 Z" stroke-miterlimit="10" stroke-dasharray=""/></g><g transform="matrix(1,0,0,1,673.0006802696109,352.9393854664339)"/></g><g id="_44286F6A-C90C-4837-82C0-23955924B6F3#_AD0B32E2-E1D6-4C13-9E85-C440DDA75EC6"><g><path fill="none" stroke="#000000" paint-order="fill stroke markers" d=" M 701.8627450980392 236 L 672.9456691297925 196.1413277194437" stroke-miterlimit="10" stroke-dasharray=""/></g><g transform="matrix(1,0,0,1,701.8627450980392,236)"/><g transform="matrix(0.8094218479629137,-0.5872276151887799,0.5872276151887799,0.8094218479629137,660.0901456621463,186.9361380759439)"><path fill="#000000" stroke="#000000" paint-order="fill stroke markers" d=" M 10 15 L 0 15 L 5 0 Z" stroke-miterlimit="10" stroke-dasharray=""/></g><g transform="matrix(1,0,0,1,672.2314733815899,204.1277238481122)"/></g><g id="_44286F6A-C90C-4837-82C0-23955924B6F3#_26B30AFB-6D57-475D-8ADA-2496B6A7E340"><g><path fill="none" stroke="#000000" paint-order="fill stroke markers" d=" M 670 236.36023054755043 L 436.45495883085465 121.27031112413874" stroke-miterlimit="10" stroke-dasharray=""/></g><g transform="matrix(1,0,0,1,670,236.36023054755043)"/><g transform="matrix(0.44203611144594457,-0.8969972553903097,0.8969972553903097,0.44203611144594457,420.7898194427703,119.12475572940112)"><path fill="#000000" stroke="#000000" paint-order="fill stroke markers" d=" M 10 15 L 0 15 L 5 0 Z" stroke-miterlimit="10" stroke-dasharray=""/></g><g transform="matrix(1,0,0,1,461.2206355754285,166.5300274460969)"/></g><g id="_44286F6A-C90C-4837-82C0-23955924B6F3#_E7615077-EAD6-49C5-B21C-CC054BC4C77E"><g><path fill="none" stroke="#000000" paint-order="fill stroke markers" d=" M 749.093567251462 236 L 878.5296989572199 124.77598732821808" stroke-miterlimit="10" stroke-dasharray=""/></g><g transform="matrix(1,0,0,1,749.093567251462,236)"/><g transform="matrix(0.651732488547873,0.758448919421207,-0.758448919421207,0.651732488547873,886.6477703057986,111.20775540289397)"><path fill="#000000" stroke="#000000" paint-order="fill stroke markers" d=" M 10 15 L 0 15 L 5 0 Z" stroke-miterlimit="10" stroke-dasharray=""/></g><g transform="matrix(1,0,0,1,755.6108921369407,167.91551080578793)"/></g><g id="_44286F6A-C90C-4837-82C0-23955924B6F3#_4A505146-5C09-4F48-9259-269557D0E627"><g><path fill="none" stroke="#000000" paint-order="fill stroke markers" d=" M 645.5433430111987 426.3421052631579 L 597.7636626663601 300.02981435152867" stroke-miterlimit="10" stroke-dasharray=""/></g><g transform="matrix(1,0,0,1,645.5433430111987,426.3421052631579)"/><g transform="matrix(0.935320956768576,-0.35380037850391793,0.35380037850391793,0.935320956768576,587.7800522049585,287.7690018925196)"><path fill="#000000" stroke="#000000" paint-order="fill stroke markers" d=" M 10 15 L 0 15 L 5 0 Z" stroke-miterlimit="10" stroke-dasharray=""/></g><g transform="matrix(1,0,0,1,601.8098665564871,352.6330488465398)"/></g><g id="_44286F6A-C90C-4837-82C0-23955924B6F3#_1C6B2D8A-A861-4683-9EE2-9B3D40C136A8"><g><path fill="none" stroke="#000000" paint-order="fill stroke markers" d=" M 598.4411764705883 236 L 622.6764303185831 196.7619699603894" stroke-miterlimit="10" stroke-dasharray=""/></g><g transform="matrix(1,0,0,1,598.4411764705883,236)"/><g transform="matrix(0.8507979973592937,0.5254928807219136,-0.5254928807219136,0.8507979973592937,626.3048335426154,181.37253559639043)"><path fill="#000000" stroke="#000000" paint-order="fill stroke markers" d=" M 10 15 L 0 15 L 5 0 Z" stroke-miterlimit="10" stroke-dasharray=""/></g><g transform="matrix(1,0,0,1,606.9491564441811,204.74507119278084)"/></g><g id="_44286F6A-C90C-4837-82C0-23955924B6F3#_E61EB074-6281-483F-84A3-F335D0DAE4B0"><g><path fill="none" stroke="#000000" paint-order="fill stroke markers" d=" M 635.4894035394364 426.3421052631579 L 401.7391893665469 126.82510350803055" stroke-miterlimit="10" stroke-dasharray=""/></g><g transform="matrix(1,0,0,1,635.4894035394364,426.3421052631579)"/><g transform="matrix(0.7883402338687038,-0.6152395270655466,0.6152395270655466,0.7883402338687038,388.5688952912202,118.07619763532773)"><path fill="#000000" stroke="#000000" paint-order="fill stroke markers" d=" M 10 15 L 0 15 L 5 0 Z" stroke-miterlimit="10" stroke-dasharray=""/></g><g transform="matrix(1,0,0,1,460.3594496321323,264.5186573609235)"/></g><g id="_44286F6A-C90C-4837-82C0-23955924B6F3#_D2F35582-0A8D-40D7-A690-371B6F571BC4"><g><path fill="none" stroke="#000000" paint-order="fill stroke markers" d=" M 673.2652392396767 426.3421052631579 L 891.885772563014 127.11178797221446" stroke-miterlimit="10" stroke-dasharray=""/></g><g transform="matrix(1,0,0,1,673.2652392396767,426.3421052631579)"/><g transform="matrix(0.8074525314809647,0.5899325464872927,-0.5899325464872927,0.8074525314809647,896.6974981029186,112.05033726756353)"><path fill="#000000" stroke="#000000" paint-order="fill stroke markers" d=" M 10 15 L 0 15 L 5 0 Z" stroke-miterlimit="10" stroke-dasharray=""/></g><g transform="matrix(1,0,0,1,736.0812706660803,264.771727166706)"/></g></g></g></svg>